<svg xmlns="http://www.w3.org/2000/svg" xmlns:xlink="http://www.w3.org/1999/xlink" width="500" zoomAndPan="magnify" viewBox="0 0 375 374.999991" height="500" preserveAspectRatio="xMidYMid meet" version="1.0"><defs><g/><clipPath id="ce4dd664f1"><rect x="0" width="60" y="0" height="130"/></clipPath><clipPath id="885c00e6d5"><path d="M 69.738281 142.042969 L 125.550781 142.042969 L 125.550781 159.507812 L 69.738281 159.507812 Z M 69.738281 142.042969 " clip-rule="nonzero"/></clipPath><clipPath id="ef482b7bb7"><path d="M 75.738281 142.042969 L 119.488281 142.042969 C 121.078125 142.042969 122.605469 142.675781 123.730469 143.800781 C 124.855469 144.925781 125.488281 146.453125 125.488281 148.042969 L 125.488281 153.507812 C 125.488281 155.101562 124.855469 156.625 123.730469 157.75 C 122.605469 158.875 121.078125 159.507812 119.488281 159.507812 L 75.738281 159.507812 C 74.148438 159.507812 72.621094 158.875 71.496094 157.75 C 70.371094 156.625 69.738281 155.101562 69.738281 153.507812 L 69.738281 148.042969 C 69.738281 146.453125 70.371094 144.925781 71.496094 143.800781 C 72.621094 142.675781 74.148438 142.042969 75.738281 142.042969 Z M 75.738281 142.042969 " clip-rule="nonzero"/></clipPath><clipPath id="8b3456ea53"><path d="M 0.738281 0.0429688 L 56.519531 0.0429688 L 56.519531 17.507812 L 0.738281 17.507812 Z M 0.738281 0.0429688 " clip-rule="nonzero"/></clipPath><clipPath id="a3c9534853"><path d="M 6.738281 0.0429688 L 50.488281 0.0429688 C 52.078125 0.0429688 53.605469 0.675781 54.730469 1.800781 C 55.855469 2.925781 56.488281 4.453125 56.488281 6.042969 L 56.488281 11.507812 C 56.488281 13.101562 55.855469 14.625 54.730469 15.75 C 53.605469 16.875 52.078125 17.507812 50.488281 17.507812 L 6.738281 17.507812 C 5.148438 17.507812 3.621094 16.875 2.496094 15.75 C 1.371094 14.625 0.738281 13.101562 0.738281 11.507812 L 0.738281 6.042969 C 0.738281 4.453125 1.371094 2.925781 2.496094 1.800781 C 3.621094 0.675781 5.148438 0.0429688 6.738281 0.0429688 Z M 6.738281 0.0429688 " clip-rule="nonzero"/></clipPath><clipPath id="287da29deb"><rect x="0" width="57" y="0" height="18"/></clipPath><clipPath id="78c7991aa6"><path d="M 77.207031 153.460938 L 87.550781 153.460938 L 87.550781 195.894531 L 77.207031 195.894531 Z M 77.207031 153.460938 " clip-rule="nonzero"/></clipPath><clipPath id="2fa945fd12"><path d="M 77.207031 190.722656 L 77.207031 158.65625 C 77.207031 155.796875 79.523438 153.480469 82.378906 153.480469 C 85.234375 153.480469 87.550781 155.796875 87.550781 158.65625 L 87.550781 190.722656 C 87.550781 193.582031 85.234375 195.894531 82.378906 195.894531 C 79.523438 195.894531 77.207031 193.582031 77.207031 190.722656 Z M 77.207031 190.722656 " clip-rule="nonzero"/></clipPath><clipPath id="429d0abf2a"><path d="M 0.207031 0.460938 L 10.550781 0.460938 L 10.550781 42.894531 L 0.207031 42.894531 Z M 0.207031 0.460938 " clip-rule="nonzero"/></clipPath><clipPath id="522cd5914c"><path d="M 0.207031 37.722656 L 0.207031 5.65625 C 0.207031 2.796875 2.523438 0.480469 5.378906 0.480469 C 8.234375 0.480469 10.550781 2.796875 10.550781 5.65625 L 10.550781 37.722656 C 10.550781 40.582031 8.234375 42.894531 5.378906 42.894531 C 2.523438 42.894531 0.207031 40.582031 0.207031 37.722656 Z M 0.207031 37.722656 " clip-rule="nonzero"/></clipPath><clipPath id="11000836cf"><rect x="0" width="11" y="0" height="43"/></clipPath><clipPath id="d62c690f6e"><rect x="0" width="60" y="0" height="130"/></clipPath><clipPath id="a955e22978"><rect x="0" width="29" y="0" height="130"/></clipPath><clipPath id="7529ad0dfd"><rect x="0" width="84" y="0" height="130"/></clipPath></defs><g transform="matrix(1, 0, 0, 1, 61, 125)"><g clip-path="url(#ce4dd664f1)"><g fill="#fafaff" fill-opacity="1"><g transform="translate(0.491907, 103.636405)"><g><path d="M 43.71875 -77.40625 C 46.46875 -77.40625 48.492188 -77.175781 49.796875 -76.71875 C 51.097656 -76.257812 52.03125 -75.503906 52.59375 -74.453125 C 53.363281 -72.835938 53.75 -70.65625 53.75 -67.90625 L 53.75 -27.03125 C 53.75 -19.644531 51.070312 -13.113281 45.71875 -7.4375 C 40.375 -1.769531 33.546875 1.0625 25.234375 1.0625 C 20.585938 1.0625 16.472656 0.0390625 12.890625 -2 C 9.648438 -3.757812 7.394531 -5.347656 6.125 -6.765625 L 5.28125 -7.609375 C 2.8125 -10.210938 1.578125 -12.445312 1.578125 -14.3125 C 1.578125 -16.175781 2.8125 -18.375 5.28125 -20.90625 C 7.75 -23.445312 9.929688 -24.71875 11.828125 -24.71875 C 13.734375 -24.71875 15.847656 -23.554688 18.171875 -21.234375 C 20.492188 -18.910156 23.007812 -17.75 25.71875 -17.75 C 28.425781 -17.75 30.660156 -18.660156 32.421875 -20.484375 C 34.179688 -22.316406 35.0625 -24.75 35.0625 -27.78125 L 35.0625 -67.265625 C 35.0625 -71.492188 35.765625 -74.207031 37.171875 -75.40625 C 38.796875 -76.738281 40.976562 -77.40625 43.71875 -77.40625 Z M 43.71875 -77.40625 "/></g></g></g></g></g><g clip-path="url(#885c00e6d5)"><g clip-path="url(#ef482b7bb7)"><g transform="matrix(1, 0, 0, 1, 69, 142)"><g clip-path="url(#287da29deb)"><g clip-path="url(#8b3456ea53)"><g clip-path="url(#a3c9534853)"><path fill="#fafaff" d="M 0.738281 0.0429688 L 56.480469 0.0429688 L 56.480469 17.507812 L 0.738281 17.507812 Z M 0.738281 0.0429688 " fill-opacity="1" fill-rule="nonzero"/></g></g></g></g></g></g><g clip-path="url(#78c7991aa6)"><g clip-path="url(#2fa945fd12)"><g transform="matrix(1, 0, 0, 1, 77, 153)"><g clip-path="url(#11000836cf)"><g clip-path="url(#429d0abf2a)"><g clip-path="url(#522cd5914c)"><path fill="#fafaff" d="M 0.207031 42.894531 L 0.207031 0.460938 L 10.550781 0.460938 L 10.550781 42.894531 Z M 0.207031 42.894531 " fill-opacity="1" fill-rule="nonzero"/></g></g></g></g></g></g><g transform="matrix(1, 0, 0, 1, 213, 118)"><g clip-path="url(#d62c690f6e)"><g fill="#fafaff" fill-opacity="1"><g transform="translate(0.34792, 103.629062)"><g><path d="M 43.71875 -77.40625 C 46.46875 -77.40625 48.492188 -77.175781 49.796875 -76.71875 C 51.097656 -76.257812 52.03125 -75.503906 52.59375 -74.453125 C 53.363281 -72.835938 53.75 -70.65625 53.75 -67.90625 L 53.75 -27.03125 C 53.75 -19.644531 51.070312 -13.113281 45.71875 -7.4375 C 40.375 -1.769531 33.546875 1.0625 25.234375 1.0625 C 20.585938 1.0625 16.472656 0.0390625 12.890625 -2 C 9.648438 -3.757812 7.394531 -5.347656 6.125 -6.765625 L 5.28125 -7.609375 C 2.8125 -10.210938 1.578125 -12.445312 1.578125 -14.3125 C 1.578125 -16.175781 2.8125 -18.375 5.28125 -20.90625 C 7.75 -23.445312 9.929688 -24.71875 11.828125 -24.71875 C 13.734375 -24.71875 15.847656 -23.554688 18.171875 -21.234375 C 20.492188 -18.910156 23.007812 -17.75 25.71875 -17.75 C 28.425781 -17.75 30.660156 -18.660156 32.421875 -20.484375 C 34.179688 -22.316406 35.0625 -24.75 35.0625 -27.78125 L 35.0625 -67.265625 C 35.0625 -71.492188 35.765625 -74.207031 37.171875 -75.40625 C 38.796875 -76.738281 40.976562 -77.40625 43.71875 -77.40625 Z M 43.71875 -77.40625 "/></g></g></g></g></g><g transform="matrix(1, 0, 0, 1, 274, 118)"><g clip-path="url(#a955e22978)"><g fill="#fafaff" fill-opacity="1"><g transform="translate(0.347584, 103.629062)"><g><path d="M 4.21875 -68.125 C 4.21875 -69.738281 4.269531 -70.945312 4.375 -71.75 C 4.488281 -72.5625 4.828125 -73.5 5.390625 -74.5625 C 6.367188 -76.457031 9.113281 -77.40625 13.625 -77.40625 C 18.550781 -77.40625 21.472656 -76.101562 22.390625 -73.5 C 22.742188 -72.300781 22.921875 -70.472656 22.921875 -68.015625 L 22.921875 -9.296875 C 22.921875 -7.609375 22.863281 -6.375 22.75 -5.59375 C 22.644531 -4.820312 22.3125 -3.90625 21.75 -2.84375 C 20.769531 -0.945312 18.023438 0 13.515625 0 C 8.585938 0 5.703125 -1.335938 4.859375 -4.015625 C 4.429688 -5.140625 4.21875 -6.9375 4.21875 -9.40625 Z M 4.21875 -68.125 "/></g></g></g></g></g><g transform="matrix(1, 0, 0, 1, 128, 118)"><g clip-path="url(#7529ad0dfd)"><g fill="#fafaff" fill-opacity="1"><g transform="translate(0.488268, 103.629062)"><g><path d="M 40.546875 -78.359375 C 50.972656 -78.359375 60.019531 -74.59375 67.6875 -67.0625 C 75.363281 -59.53125 79.203125 -50.179688 79.203125 -39.015625 C 79.203125 -27.859375 75.539062 -18.351562 68.21875 -10.5 C 60.894531 -2.65625 51.882812 1.265625 41.1875 1.265625 C 30.488281 1.265625 21.390625 -2.601562 13.890625 -10.34375 C 6.390625 -18.09375 2.640625 -27.316406 2.640625 -38.015625 C 2.640625 -43.859375 3.695312 -49.332031 5.8125 -54.4375 C 7.925781 -59.539062 10.738281 -63.816406 14.25 -67.265625 C 17.769531 -70.722656 21.816406 -73.4375 26.390625 -75.40625 C 30.972656 -77.375 35.691406 -78.359375 40.546875 -78.359375 Z M 21.328125 -38.546875 C 21.328125 -32.273438 23.351562 -27.1875 27.40625 -23.28125 C 31.457031 -19.375 35.976562 -17.421875 40.96875 -17.421875 C 45.96875 -17.421875 50.472656 -19.320312 54.484375 -23.125 C 58.503906 -26.925781 60.515625 -32.03125 60.515625 -38.4375 C 60.515625 -44.84375 58.488281 -49.984375 54.4375 -53.859375 C 50.394531 -57.734375 45.875 -59.671875 40.875 -59.671875 C 35.875 -59.671875 31.363281 -57.71875 27.34375 -53.8125 C 23.332031 -49.90625 21.328125 -44.816406 21.328125 -38.546875 Z M 21.328125 -38.546875 "/></g></g></g></g></g></svg>