<svg xmlns="http://www.w3.org/2000/svg" xmlns:xlink="http://www.w3.org/1999/xlink" width="500" zoomAndPan="magnify" viewBox="0 0 375 374.999991" height="500" preserveAspectRatio="xMidYMid meet" version="1.0"><defs><g/><clipPath id="7413743547"><rect x="0" width="91" y="0" height="197"/></clipPath><clipPath id="25cdf8b994"><path d="M 17.8125 118.480469 L 102.550781 118.480469 L 102.550781 145 L 17.8125 145 Z M 17.8125 118.480469 " clip-rule="nonzero"/></clipPath><clipPath id="f83add983c"><path d="M 23.8125 118.480469 L 96.457031 118.480469 C 98.046875 118.480469 99.574219 119.113281 100.699219 120.238281 C 101.824219 121.363281 102.457031 122.890625 102.457031 124.480469 L 102.457031 139 C 102.457031 140.59375 101.824219 142.117188 100.699219 143.242188 C 99.574219 144.367188 98.046875 145 96.457031 145 L 23.8125 145 C 22.222656 145 20.695312 144.367188 19.570312 143.242188 C 18.445312 142.117188 17.8125 140.59375 17.8125 139 L 17.8125 124.480469 C 17.8125 122.890625 18.445312 121.363281 19.570312 120.238281 C 20.695312 119.113281 22.222656 118.480469 23.8125 118.480469 Z M 23.8125 118.480469 " clip-rule="nonzero"/></clipPath><clipPath id="463c9d3fdb"><path d="M 0.8125 0.480469 L 85.480469 0.480469 L 85.480469 27 L 0.8125 27 Z M 0.8125 0.480469 " clip-rule="nonzero"/></clipPath><clipPath id="769d3ab61c"><path d="M 6.8125 0.480469 L 79.457031 0.480469 C 81.046875 0.480469 82.574219 1.113281 83.699219 2.238281 C 84.824219 3.363281 85.457031 4.890625 85.457031 6.480469 L 85.457031 21 C 85.457031 22.59375 84.824219 24.117188 83.699219 25.242188 C 82.574219 26.367188 81.046875 27 79.457031 27 L 6.8125 27 C 5.222656 27 3.695312 26.367188 2.570312 25.242188 C 1.445312 24.117188 0.8125 22.59375 0.8125 21 L 0.8125 6.480469 C 0.8125 4.890625 1.445312 3.363281 2.570312 2.238281 C 3.695312 1.113281 5.222656 0.480469 6.8125 0.480469 Z M 6.8125 0.480469 " clip-rule="nonzero"/></clipPath><clipPath id="5c53877ff9"><rect x="0" width="86" y="0" height="27"/></clipPath><clipPath id="f311749048"><path d="M 29.144531 135.828125 L 44.855469 135.828125 L 44.855469 200.253906 L 29.144531 200.253906 Z M 29.144531 135.828125 " clip-rule="nonzero"/></clipPath><clipPath id="d006ba3bef"><path d="M 29.144531 194.253906 L 29.144531 141.855469 C 29.144531 138.542969 31.832031 135.855469 35.144531 135.855469 L 38.855469 135.855469 C 42.167969 135.855469 44.855469 138.542969 44.855469 141.855469 L 44.855469 194.253906 C 44.855469 197.566406 42.167969 200.253906 38.855469 200.253906 L 35.144531 200.253906 C 31.832031 200.253906 29.144531 197.566406 29.144531 194.253906 Z M 29.144531 194.253906 " clip-rule="nonzero"/></clipPath><clipPath id="9162d3c34e"><path d="M 0.144531 0.839844 L 15.855469 0.839844 L 15.855469 65.253906 L 0.144531 65.253906 Z M 0.144531 0.839844 " clip-rule="nonzero"/></clipPath><clipPath id="efe26ec399"><path d="M 0.144531 59.253906 L 0.144531 6.855469 C 0.144531 3.542969 2.832031 0.855469 6.144531 0.855469 L 9.855469 0.855469 C 13.167969 0.855469 15.855469 3.542969 15.855469 6.855469 L 15.855469 59.253906 C 15.855469 62.566406 13.167969 65.253906 9.855469 65.253906 L 6.144531 65.253906 C 2.832031 65.253906 0.144531 62.566406 0.144531 59.253906 Z M 0.144531 59.253906 " clip-rule="nonzero"/></clipPath><clipPath id="7f7dd4f3aa"><rect x="0" width="16" y="0" height="66"/></clipPath><clipPath id="935f9a9e40"><rect x="0" width="92" y="0" height="197"/></clipPath><clipPath id="e802c611fb"><rect x="0" width="43" y="0" height="197"/></clipPath><clipPath id="aa541e1ff3"><rect x="0" width="128" y="0" height="197"/></clipPath></defs><g transform="matrix(1, 0, 0, 1, 5, 93)"><g clip-path="url(#7413743547)"><g fill="#fafaff" fill-opacity="1"><g transform="translate(0.290306, 156.957896)"><g><path d="M 66.375 -117.53125 C 70.550781 -117.53125 73.625 -117.179688 75.59375 -116.484375 C 77.570312 -115.796875 78.988281 -114.648438 79.84375 -113.046875 C 81.019531 -110.585938 81.609375 -107.269531 81.609375 -103.09375 L 81.609375 -41.046875 C 81.609375 -29.828125 77.546875 -19.910156 69.421875 -11.296875 C 61.304688 -2.691406 50.941406 1.609375 38.328125 1.609375 C 31.265625 1.609375 25.007812 0.0546875 19.5625 -3.046875 C 14.644531 -5.722656 11.222656 -8.128906 9.296875 -10.265625 L 8.015625 -11.546875 C 4.273438 -15.503906 2.40625 -18.894531 2.40625 -21.71875 C 2.40625 -24.550781 4.273438 -27.890625 8.015625 -31.734375 C 11.753906 -35.585938 15.066406 -37.515625 17.953125 -37.515625 C 20.835938 -37.515625 24.046875 -35.75 27.578125 -32.21875 C 31.109375 -28.695312 34.929688 -26.9375 39.046875 -26.9375 C 43.160156 -26.9375 46.550781 -28.328125 49.21875 -31.109375 C 51.894531 -33.890625 53.234375 -37.578125 53.234375 -42.171875 L 53.234375 -102.140625 C 53.234375 -108.554688 54.300781 -112.671875 56.4375 -114.484375 C 58.894531 -116.515625 62.207031 -117.53125 66.375 -117.53125 Z M 66.375 -117.53125 "/></g></g></g></g></g><g clip-path="url(#25cdf8b994)"><g clip-path="url(#f83add983c)"><g transform="matrix(1, 0, 0, 1, 17, 118)"><g clip-path="url(#5c53877ff9)"><g clip-path="url(#463c9d3fdb)"><g clip-path="url(#769d3ab61c)"><path fill="#fafaff" d="M 0.8125 0.480469 L 85.445312 0.480469 L 85.445312 27 L 0.8125 27 Z M 0.8125 0.480469 " fill-opacity="1" fill-rule="nonzero"/></g></g></g></g></g></g><g clip-path="url(#f311749048)"><g clip-path="url(#d006ba3bef)"><g transform="matrix(1, 0, 0, 1, 29, 135)"><g clip-path="url(#7f7dd4f3aa)"><g clip-path="url(#9162d3c34e)"><g clip-path="url(#efe26ec399)"><path fill="#fafaff" d="M 0.144531 65.253906 L 0.144531 0.828125 L 15.855469 0.828125 L 15.855469 65.253906 Z M 0.144531 65.253906 " fill-opacity="1" fill-rule="nonzero"/></g></g></g></g></g></g><g transform="matrix(1, 0, 0, 1, 235, 82)"><g clip-path="url(#935f9a9e40)"><g fill="#fafaff" fill-opacity="1"><g transform="translate(0.855082, 157.318554)"><g><path d="M 66.375 -117.53125 C 70.550781 -117.53125 73.625 -117.179688 75.59375 -116.484375 C 77.570312 -115.796875 78.988281 -114.648438 79.84375 -113.046875 C 81.019531 -110.585938 81.609375 -107.269531 81.609375 -103.09375 L 81.609375 -41.046875 C 81.609375 -29.828125 77.546875 -19.910156 69.421875 -11.296875 C 61.304688 -2.691406 50.941406 1.609375 38.328125 1.609375 C 31.265625 1.609375 25.007812 0.0546875 19.5625 -3.046875 C 14.644531 -5.722656 11.222656 -8.128906 9.296875 -10.265625 L 8.015625 -11.546875 C 4.273438 -15.503906 2.40625 -18.894531 2.40625 -21.71875 C 2.40625 -24.550781 4.273438 -27.890625 8.015625 -31.734375 C 11.753906 -35.585938 15.066406 -37.515625 17.953125 -37.515625 C 20.835938 -37.515625 24.046875 -35.75 27.578125 -32.21875 C 31.109375 -28.695312 34.929688 -26.9375 39.046875 -26.9375 C 43.160156 -26.9375 46.550781 -28.328125 49.21875 -31.109375 C 51.894531 -33.890625 53.234375 -37.578125 53.234375 -42.171875 L 53.234375 -102.140625 C 53.234375 -108.554688 54.300781 -112.671875 56.4375 -114.484375 C 58.894531 -116.515625 62.207031 -117.53125 66.375 -117.53125 Z M 66.375 -117.53125 "/></g></g></g></g></g><g transform="matrix(1, 0, 0, 1, 328, 82)"><g clip-path="url(#e802c611fb)"><g fill="#fafaff" fill-opacity="1"><g transform="translate(0.471594, 157.318554)"><g><path d="M 6.40625 -103.421875 C 6.40625 -105.878906 6.484375 -107.722656 6.640625 -108.953125 C 6.804688 -110.179688 7.316406 -111.597656 8.171875 -113.203125 C 9.671875 -116.085938 13.84375 -117.53125 20.6875 -117.53125 C 28.164062 -117.53125 32.601562 -115.550781 34 -111.59375 C 34.53125 -109.78125 34.796875 -107.003906 34.796875 -103.265625 L 34.796875 -14.109375 C 34.796875 -11.546875 34.710938 -9.675781 34.546875 -8.5 C 34.390625 -7.320312 33.882812 -5.929688 33.03125 -4.328125 C 31.53125 -1.441406 27.363281 0 20.53125 0 C 13.039062 0 8.65625 -2.03125 7.375 -6.09375 C 6.726562 -7.800781 6.40625 -10.523438 6.40625 -14.265625 Z M 6.40625 -103.421875 "/></g></g></g></g></g><g transform="matrix(1, 0, 0, 1, 106, 82)"><g clip-path="url(#aa541e1ff3)"><g fill="#fafaff" fill-opacity="1"><g transform="translate(1.011675, 157.318554)"><g><path d="M 61.578125 -118.96875 C 77.390625 -118.96875 91.117188 -113.25 102.765625 -101.8125 C 114.421875 -90.375 120.25 -76.179688 120.25 -59.234375 C 120.25 -42.296875 114.691406 -27.867188 103.578125 -15.953125 C 92.460938 -4.035156 78.78125 1.921875 62.53125 1.921875 C 46.28125 1.921875 32.460938 -3.953125 21.078125 -15.703125 C 9.703125 -27.460938 4.015625 -41.46875 4.015625 -57.71875 C 4.015625 -66.59375 5.613281 -74.90625 8.8125 -82.65625 C 12.019531 -90.40625 16.296875 -96.898438 21.640625 -102.140625 C 26.984375 -107.378906 33.128906 -111.492188 40.078125 -114.484375 C 47.035156 -117.472656 54.203125 -118.96875 61.578125 -118.96875 Z M 32.390625 -58.515625 C 32.390625 -49.003906 35.460938 -41.28125 41.609375 -35.34375 C 47.753906 -29.414062 54.617188 -26.453125 62.203125 -26.453125 C 69.796875 -26.453125 76.640625 -29.335938 82.734375 -35.109375 C 88.828125 -40.890625 91.875 -48.640625 91.875 -58.359375 C 91.875 -68.085938 88.800781 -75.890625 82.65625 -81.765625 C 76.507812 -87.648438 69.640625 -90.59375 62.046875 -90.59375 C 54.460938 -90.59375 47.625 -87.625 41.53125 -81.6875 C 35.4375 -75.757812 32.390625 -68.035156 32.390625 -58.515625 Z M 32.390625 -58.515625 "/></g></g></g></g></g></svg>